<svg viewBox="0 0 549 156" xmlns="http://www.w3.org/2000/svg">
<path d="M53.1493 0L0 69.834L30.9232 91.9596L53.1493 0Z"/>
<path d="M14.8507 156L68 86.166L37.0768 64.0404L14.8507 156Z"/>
<path d="M143.849 128V26.1818H165.376V68.1918H209.077V26.1818H230.554V128H209.077V85.9403H165.376V128H143.849Z"/>
<path d="M282.408 129.491C274.685 129.491 268.007 127.851 262.372 124.57C256.771 121.255 252.446 116.648 249.396 110.749C246.347 104.816 244.822 97.9384 244.822 90.1165C244.822 82.2282 246.347 75.3343 249.396 69.4347C252.446 63.5019 256.771 58.8949 262.372 55.6136C268.007 52.2992 274.685 50.642 282.408 50.642C290.13 50.642 296.792 52.2992 302.393 55.6136C308.028 58.8949 312.37 63.5019 315.419 69.4347C318.468 75.3343 319.993 82.2282 319.993 90.1165C319.993 97.9384 318.468 104.816 315.419 110.749C312.37 116.648 308.028 121.255 302.393 124.57C296.792 127.851 290.13 129.491 282.408 129.491ZM282.507 113.085C286.02 113.085 288.954 112.091 291.307 110.102C293.66 108.08 295.433 105.33 296.626 101.849C297.853 98.3693 298.466 94.4086 298.466 89.9673C298.466 85.526 297.853 81.5653 296.626 78.0852C295.433 74.6051 293.66 71.8542 291.307 69.8324C288.954 67.8106 286.02 66.7997 282.507 66.7997C278.961 66.7997 275.978 67.8106 273.558 69.8324C271.172 71.8542 269.366 74.6051 268.139 78.0852C266.946 81.5653 266.349 85.526 266.349 89.9673C266.349 94.4086 266.946 98.3693 268.139 101.849C269.366 105.33 271.172 108.08 273.558 110.102C275.978 112.091 278.961 113.085 282.507 113.085Z"/>
<path d="M374.382 51.6364V67.5455H328.395V51.6364H374.382ZM338.835 33.3409H360.014V104.534C360.014 106.49 360.312 108.014 360.909 109.108C361.506 110.169 362.334 110.914 363.395 111.345C364.489 111.776 365.748 111.991 367.173 111.991C368.168 111.991 369.162 111.909 370.156 111.743C371.151 111.544 371.913 111.395 372.443 111.295L375.774 127.055C374.714 127.387 373.222 127.768 371.3 128.199C369.377 128.663 367.041 128.945 364.29 129.044C359.186 129.243 354.711 128.563 350.866 127.006C347.055 125.448 344.089 123.028 341.967 119.747C339.846 116.466 338.802 112.323 338.835 107.318V33.3409Z"/>
<path d="M429.244 51.6364V67.5455H382.113V51.6364H429.244ZM392.901 128V46.1179C392.901 40.5829 393.978 35.9924 396.133 32.3466C398.32 28.7008 401.303 25.9664 405.082 24.1435C408.86 22.3205 413.152 21.4091 417.958 21.4091C421.206 21.4091 424.173 21.6577 426.857 22.1548C429.575 22.652 431.597 23.0994 432.923 23.4972L429.144 39.4062C428.316 39.1411 427.288 38.8925 426.062 38.6605C424.869 38.4285 423.642 38.3125 422.383 38.3125C419.267 38.3125 417.096 39.0417 415.87 40.5C414.644 41.9252 414.031 43.9304 414.031 46.5156V128H392.901Z"/>
<path d="M442.182 128V51.6364H463.361V128H442.182ZM452.821 41.7926C449.673 41.7926 446.971 40.7486 444.718 38.6605C442.497 36.5393 441.387 34.0038 441.387 31.054C441.387 28.1373 442.497 25.6349 444.718 23.5469C446.971 21.4257 449.673 20.3651 452.821 20.3651C455.97 20.3651 458.655 21.4257 460.875 23.5469C463.129 25.6349 464.256 28.1373 464.256 31.054C464.256 34.0038 463.129 36.5393 460.875 38.6605C458.655 40.7486 455.97 41.7926 452.821 41.7926Z"/>
<path d="M498.026 51.6364L512.045 78.3338L526.413 51.6364H548.139L526.016 89.8182L548.736 128H527.109L512.045 101.601L497.23 128H475.355L498.026 89.8182L476.151 51.6364H498.026Z" fill="black"/>
</svg>
